<svg width="457" height="209" data-name="Layer 1" version="1.1" xmlns="http://www.w3.org/2000/svg">
 <g>
  <g className="fill-blue-500">
   <path class="fill-blue-500" d="m240.23 103.41a13.84 13.84 0 0 1-7.9-8.4l5.82-2.62a10.67 10.67 0 0 0 3.55 4.4 8.47 8.47 0 0 0 5 1.6 5.57 5.57 0 0 0 3.46-1 3.13 3.13 0 0 0 1.31-2.63q0-2.38-3-3.39l-6.68-2.2q-8.21-2.7-8.2-9.67a9.48 9.48 0 0 1 1.49-5.31 10.05 10.05 0 0 1 4.16-3.57 14.19 14.19 0 0 1 6.16-1.28 14.4 14.4 0 0 1 8.13 2.31 12.3 12.3 0 0 1 4.93 6.34l-5.77 2.61a8.21 8.21 0 0 0-2.89-3.73 7.47 7.47 0 0 0-4.4-1.35 5.52 5.52 0 0 0-3.48 1 3.26 3.26 0 0 0-1.33 2.68q0 2.43 3.12 3.48l6.55 2.11q8.21 2.65 8.2 9.52a9.22 9.22 0 0 1-1.56 5.29 10.43 10.43 0 0 1-4.28 3.62 14.55 14.55 0 0 1-6.35 1.31 15.56 15.56 0 0 1-6.04-1.12z"/>
   <path class="cls-2 fill-inherit" d="m267.21 101.85a9.12 9.12 0 0 1-2.5-6.84v-10h-4.21v-6h0.23q4 0 4-3.85v-1.83h6.87v5.68h5.86v6h-5.86v9.51q0 3.8 4.26 3.8a11.94 11.94 0 0 0 1.6-0.14v5.82l-1.55 0.18a16.07 16.07 0 0 1-1.65 0.09c-3.04 0.03-5.39-0.75-7.05-2.42z"/>
   <path class="cls-2" d="m282.05 102.65a6.48 6.48 0 0 1-2.36-5.31 6.82 6.82 0 0 1 2.2-5.22 12.42 12.42 0 0 1 6.68-2.79l6.92-1.1v-0.71a3 3 0 0 0-1.12-2.38 4.55 4.55 0 0 0-3.05-1 5.39 5.39 0 0 0-3.23 1 5.78 5.78 0 0 0-2 2.66l-5.5-2.61a9.34 9.34 0 0 1 4.1-5 13.14 13.14 0 0 1 7-1.83 12.87 12.87 0 0 1 5.59 1.15 9 9 0 0 1 3.78 3.18 8.39 8.39 0 0 1 1.35 4.74v16.49h-6.41v-2.34a10.06 10.06 0 0 1-7.51 2.89 9.77 9.77 0 0 1-6.44-1.82zm5.61-3.75a3.51 3.51 0 0 0 2.15 0.64 5.46 5.46 0 0 0 4.12-1.6 5.39 5.39 0 0 0 1.56-3.9v-0.77l-5.68 1a4.84 4.84 0 0 0-2.24 0.94 2.36 2.36 0 0 0-0.78 1.9 2.09 2.09 0 0 0 0.87 1.79z"/>
   <path class="cls-2" d="m306.62 79.021h6.41v3.76a5.75 5.75 0 0 1 2.73-3.19 9.28 9.28 0 0 1 4.05-0.84h1.47v5.95h-2.17a5.5 5.5 0 0 0-4.07 1.54 5.78 5.78 0 0 0-1.56 4.32v13.47h-6.87l0.01-25.01z"/>
   <path class="cls-2" d="m331.49 69.911h23.36v6.18h-16.27v8.66h14v6.18h-14v13.1h-7.09v-34.12z"/>
   <path class="cls-2" d="m362.29 102.88a13.07 13.07 0 0 1-4.86-4.65 13.44 13.44 0 0 1 0-13.44 13.15 13.15 0 0 1 4.86-4.62 14.23 14.23 0 0 1 13.49 0 13.21 13.21 0 0 1 4.83 4.62 13.38 13.38 0 0 1 0 13.44 13.13 13.13 0 0 1-4.83 4.65 14.23 14.23 0 0 1-13.49 0zm11.29-6.36a7.87 7.87 0 0 0 0-9.87 6.27 6.27 0 0 0-9.09 0 7.76 7.76 0 0 0 0 9.87 6.34 6.34 0 0 0 9.09 0z"/>
   <path class="cls-2" d="m385.67 79.021h6.44v3.76a5.77 5.77 0 0 1 2.72-3.19 9.35 9.35 0 0 1 4.06-0.84h1.46v5.95h-2.15a5.5 5.5 0 0 0-4.07 1.54 5.78 5.78 0 0 0-1.56 4.32v13.47h-6.87l-0.03-25.01z"/>
   <path class="cls-2" d="m409.48 113.14a12.28 12.28 0 0 1-4.23-2.68 9.78 9.78 0 0 1-2.54-4.05l6.36-2.24a4.78 4.78 0 0 0 2.06 2.74 6.63 6.63 0 0 0 3.71 1 5.6 5.6 0 0 0 4-1.4 5 5 0 0 0 1.47-3.82v-2.37a9 9 0 0 1-6.69 2.47 12.23 12.23 0 0 1-6.23-1.58 11.3 11.3 0 0 1-4.3-4.35 12.63 12.63 0 0 1-1.56-6.3 12.36 12.36 0 0 1 1.56-6.25 11.44 11.44 0 0 1 4.26-4.28 12 12 0 0 1 6.16-1.51 9 9 0 0 1 7.29 3.16v-2.66h6.41v23.68a11 11 0 0 1-1.6 5.88 11.21 11.21 0 0 1-4.38 4.06 13.44 13.44 0 0 1-6.39 1.46 14.71 14.71 0 0 1-5.36-0.96zm9.28-18.2a5.91 5.91 0 0 0 1.58-4.29 6 6 0 0 0-1.58-4.35 5.5 5.5 0 0 0-4.15-1.65 5.79 5.79 0 0 0-4.28 1.68 5.85 5.85 0 0 0-1.67 4.32 5.74 5.74 0 0 0 1.67 4.26 5.84 5.84 0 0 0 4.28 1.61 5.55 5.55 0 0 0 4.15-1.58z"/>
   <path class="cls-2" d="m436.6 102.81a12.09 12.09 0 0 1-4.54-4.74 13.64 13.64 0 0 1-1.6-6.59 13.34 13.34 0 0 1 1.67-6.69 12.57 12.57 0 0 1 4.51-4.62 12.3 12.3 0 0 1 6.47-1.65 12.86 12.86 0 0 1 6.73 1.65 11 11 0 0 1 4.19 4.42 13.36 13.36 0 0 1 1.44 6.25 13.62 13.62 0 0 1-0.07 1.44 4.85 4.85 0 0 1-0.25 1.22h-17.54a5.65 5.65 0 0 0 1.87 3.75 6 6 0 0 0 4.13 1.42 6.27 6.27 0 0 0 3.13-0.73 5.32 5.32 0 0 0 2-2l5.5 2.61a9.22 9.22 0 0 1-4 4.42 13.27 13.27 0 0 1-6.74 1.67 13.11 13.11 0 0 1-6.9-1.83zm3-17.7a5.86 5.86 0 0 0-1.9 3.3h10.41a5 5 0 0 0-1.6-3.21 5 5 0 0 0-3.48-1.23 5.23 5.23 0 0 0-3.39 1.14h-0.04z"/>
   <path class="cls-2" d="m235.59 131.78a6.8 6.8 0 0 1-2.42-2.57 8 8 0 0 1 0-7.33 6.57 6.57 0 0 1 5.92-3.47 6.39 6.39 0 0 1 3.43 0.95 5.7 5.7 0 0 1 2.19 2.4l-1.37 0.72a4.78 4.78 0 0 0-1.71-1.88 4.69 4.69 0 0 0-2.54-0.69 4.91 4.91 0 0 0-2.65 0.72 5.32 5.32 0 0 0-1.87 2 6.59 6.59 0 0 0 0 5.87 5.27 5.27 0 0 0 1.87 2 5 5 0 0 0 2.65 0.72 4.58 4.58 0 0 0 4.25-2.6l1.37 0.75a5.16 5.16 0 0 1-1.29 1.71 6.65 6.65 0 0 1-2 1.21 6.25 6.25 0 0 1-2.37 0.46 6.64 6.64 0 0 1-3.46-0.97z"/>
   <path class="cls-2" d="m249.36 132.23a3.93 3.93 0 0 1-1.61-1.37 3.48 3.48 0 0 1-0.6-2 4 4 0 0 1 1-2.68 5.63 5.63 0 0 1 3.39-1.6l5.13-0.85v-0.78a2.77 2.77 0 0 0-1-2.21 3.72 3.72 0 0 0-2.55-0.85 4.37 4.37 0 0 0-2.32 0.63 4.12 4.12 0 0 0-1.57 1.69l-1.39-0.75a4.51 4.51 0 0 1 1.18-1.52 6.38 6.38 0 0 1 1.86-1.11 6.19 6.19 0 0 1 2.24-0.41 5.66 5.66 0 0 1 2.63 0.58 4.55 4.55 0 0 1 1.79 1.6 4.22 4.22 0 0 1 0.66 2.35v9.47h-1.55v-2.37a5.14 5.14 0 0 1-2 1.89 6.06 6.06 0 0 1-3.08 0.79 5.29 5.29 0 0 1-2.21-0.5zm0.27-1.63a3.2 3.2 0 0 0 2.11 0.7 5 5 0 0 0 2.61-0.67 4.67 4.67 0 0 0 1.76-1.81 5 5 0 0 0 0.62-2.47v-1.19l-4.71 0.78a4.25 4.25 0 0 0-2.48 1.05 2.58 2.58 0 0 0-0.72 1.81 2.2 2.2 0 0 0 0.81 1.8z"/>
   <path class="cls-2" d="m262.11 118.72h1.54v1.72a3.81 3.81 0 0 1 1.52-1.4 4.94 4.94 0 0 1 2.25-0.5h0.87v1.54h-1.05a3.32 3.32 0 0 0-2.62 1.08 4.09 4.09 0 0 0-1 2.87v8.38h-1.51v-13.69z"/>
   <path class="cls-2" d="m273.11 131.78a6.72 6.72 0 0 1-2.39-2.57 8 8 0 0 1 0-7.31 6.69 6.69 0 0 1 2.4-2.55 6.45 6.45 0 0 1 3.45-0.94 6.27 6.27 0 0 1 3.1 0.76 6 6 0 0 1 2.21 2.07v-8.35h1.54v19.52h-1.54v-2.61a5.65 5.65 0 0 1-2.18 2.13 6.35 6.35 0 0 1-3.13 0.79 6.53 6.53 0 0 1-3.46-0.94zm6.18-1.35a5.23 5.23 0 0 0 1.86-2 5.81 5.81 0 0 0 0.7-2.87 5.74 5.74 0 0 0-0.7-2.86 5.35 5.35 0 0 0-1.86-2 5 5 0 0 0-2.67-0.73 4.8 4.8 0 0 0-2.63 0.73 5.2 5.2 0 0 0-1.83 2 6 6 0 0 0-0.67 2.86 6 6 0 0 0 0.67 2.87 5.09 5.09 0 0 0 1.83 2 4.8 4.8 0 0 0 2.63 0.74 5 5 0 0 0 2.62-0.74h0.05z"/>
   <path class="cls-2" d="m288.85 132.23a3.93 3.93 0 0 1-1.61-1.37 3.47 3.47 0 0 1-0.59-2 4 4 0 0 1 1-2.68 5.57 5.57 0 0 1 3.38-1.6l5.13-0.85v-0.78a2.77 2.77 0 0 0-1-2.21 3.72 3.72 0 0 0-2.55-0.85 4.37 4.37 0 0 0-2.32 0.63 4.19 4.19 0 0 0-1.57 1.69l-1.39-0.75a4.64 4.64 0 0 1 1.18-1.52 6.65 6.65 0 0 1 1.86-1.11 6.19 6.19 0 0 1 2.24-0.41 5.63 5.63 0 0 1 2.63 0.58 4.49 4.49 0 0 1 1.79 1.6 4.22 4.22 0 0 1 0.66 2.35v9.47h-1.55v-2.37a5.07 5.07 0 0 1-2 1.89 6.06 6.06 0 0 1-3.08 0.79 5.29 5.29 0 0 1-2.21-0.5zm0.27-1.63a3.21 3.21 0 0 0 2.12 0.7 5 5 0 0 0 2.6-0.67 4.77 4.77 0 0 0 1.73-1.81 5.08 5.08 0 0 0 0.61-2.47v-1.19l-4.71 0.78a4.25 4.25 0 0 0-2.48 1.05 2.58 2.58 0 0 0-0.72 1.81 2.2 2.2 0 0 0 0.84 1.8h0.01z"/>
   <path class="cls-2" d="m301.55 118.72h1.56v1.8a4.11 4.11 0 0 1 1.68-1.57 5.06 5.06 0 0 1 2.4-0.57 5.19 5.19 0 0 1 2.57 0.64 4.9 4.9 0 0 1 2.56 4.41v8.95h-1.55v-8.51a3.87 3.87 0 0 0-1.08-2.91 3.74 3.74 0 0 0-2.73-1.06 3.51 3.51 0 0 0-2.8 1.19 4.41 4.41 0 0 0-1 3v8.25h-1.54l-0.07-13.62z"/>
   <path class="cls-2" d="m318.69 131.78a6.9 6.9 0 0 1-2.49-2.57 7.8 7.8 0 0 1 0-7.33 6.62 6.62 0 0 1 2.47-2.54 6.88 6.88 0 0 1 3.56-0.93 6.72 6.72 0 0 1 6 3.47 7.9 7.9 0 0 1 0 7.36 7 7 0 0 1-9.52 2.54h-0.02zm6.2-1.33a5.28 5.28 0 0 0 1.89-2 6.23 6.23 0 0 0 0-5.74 5.38 5.38 0 0 0-1.88-2 5.06 5.06 0 0 0-2.68-0.73 5.12 5.12 0 0 0-2.69 0.73 5.43 5.43 0 0 0-1.9 2 5.92 5.92 0 0 0-0.7 2.87 5.82 5.82 0 0 0 0.71 2.87 5.49 5.49 0 0 0 1.91 2 5.19 5.19 0 0 0 5.34 0z"/>
   <path class="cls-2" d="m337.49 131.76a5.43 5.43 0 0 1-2.12-2.6l1.34-0.62a5.17 5.17 0 0 0 1.72 2 4.19 4.19 0 0 0 2.4 0.73 3.78 3.78 0 0 0 2.26-0.66 2 2 0 0 0 0.91-1.73 1.8 1.8 0 0 0-0.75-1.55 5.06 5.06 0 0 0-1.65-0.8l-2.11-0.59a5.45 5.45 0 0 1-2.61-1.46 3.24 3.24 0 0 1-0.84-2.23 3.43 3.43 0 0 1 0.59-2 3.83 3.83 0 0 1 1.6-1.34 5.07 5.07 0 0 1 2.21-0.48 5.66 5.66 0 0 1 3.1 0.88 4.74 4.74 0 0 1 2 2.37l-1.39 0.64a4.42 4.42 0 0 0-1.53-1.82 3.76 3.76 0 0 0-2.16-0.65 3 3 0 0 0-2 0.65 2.1 2.1 0 0 0-0.78 1.67 1.7 1.7 0 0 0 0.68 1.45 4.43 4.43 0 0 0 1.49 0.74l2.29 0.67a5.32 5.32 0 0 1 2.59 1.47 3.49 3.49 0 0 1 0.3 4.35 4.09 4.09 0 0 1-1.7 1.38 5.68 5.68 0 0 1-2.45 0.51 5.94 5.94 0 0 1-3.39-0.98z"/>
   <path class="cls-2" d="m351.21 131.59a3.94 3.94 0 0 1-0.92-2.82v-8.58h-2.58v-1.47h1a1.57 1.57 0 0 0 1.18-0.46 1.85 1.85 0 0 0 0.42-1.27v-1.47h1.55v3.2h3v1.47h-3v8.58a3.48 3.48 0 0 0 0.17 1.11 1.67 1.67 0 0 0 0.65 0.88 2.55 2.55 0 0 0 1.42 0.33h0.5l0.48-0.06v1.4a3.69 3.69 0 0 1-0.64 0.11 4.67 4.67 0 0 1-0.57 0 3.44 3.44 0 0 1-2.66-0.95z"/>
   <path class="cls-2" d="m359.59 132.23a4 4 0 0 1-1.62-1.37 3.54 3.54 0 0 1-0.59-2 4 4 0 0 1 1-2.68 5.63 5.63 0 0 1 3.39-1.6l5.13-0.85v-0.78a2.8 2.8 0 0 0-1-2.21 3.72 3.72 0 0 0-2.55-0.85 4.37 4.37 0 0 0-2.24 0.63 4.12 4.12 0 0 0-1.57 1.69l-1.4-0.75a4.68 4.68 0 0 1 1.19-1.52 6.38 6.38 0 0 1 1.78-1.12 6.19 6.19 0 0 1 2.24-0.41 5.66 5.66 0 0 1 2.63 0.58 4.62 4.62 0 0 1 1.79 1.6 4.22 4.22 0 0 1 0.66 2.35v9.47h-1.55v-2.37a5.14 5.14 0 0 1-2 1.89 6.06 6.06 0 0 1-3.08 0.79 5.26 5.26 0 0 1-2.21-0.49zm0.27-1.63a3.18 3.18 0 0 0 2.11 0.7 5 5 0 0 0 2.6-0.67 4.7 4.7 0 0 0 1.73-1.81 5.09 5.09 0 0 0 0.62-2.47v-1.19l-4.72 0.78a4.21 4.21 0 0 0-2.47 1.05 2.58 2.58 0 0 0-0.72 1.81 2.2 2.2 0 0 0 0.85 1.8z"/>
   <path class="cls-2" d="m372.28 112.89h1.55v13.07l7.28-7.24h2.12l-5.52 5.52 6 8.17h-1.93l-5.26-7.07-2.73 2.81v4.26h-1.55l0.04-19.52z"/>
   <path class="cls-2" d="m388.39 131.78a6.83 6.83 0 0 1-2.45-2.58 7.51 7.51 0 0 1-0.9-3.68 7.43 7.43 0 0 1 0.88-3.64 6.59 6.59 0 0 1 2.37-2.54 6.21 6.21 0 0 1 3.35-0.93 6 6 0 0 1 3.3 0.9 6.18 6.18 0 0 1 2.2 2.37 6.69 6.69 0 0 1 0.79 3.23 5.17 5.17 0 0 1 0 0.54c0 0.19 0 0.38-0.07 0.59h-11.22a5.47 5.47 0 0 0 0.77 2.73 5 5 0 0 0 1.9 1.84 5.14 5.14 0 0 0 2.56 0.66 4.68 4.68 0 0 0 2.61-0.71 5.44 5.44 0 0 0 1.8-1.89l1.32 0.69a5.79 5.79 0 0 1-2.22 2.4 6.46 6.46 0 0 1-3.51 1 6.62 6.62 0 0 1-3.48-0.98zm0.91-11.32a4.91 4.91 0 0 0-1.78 1.67 5.55 5.55 0 0 0-0.85 2.49h9.61a4.6 4.6 0 0 0-0.59-2.42 4.7 4.7 0 0 0-1.68-1.68 4.52 4.52 0 0 0-2.37-0.63 4.64 4.64 0 0 0-2.34 0.57z"/>
   <path class="cls-2" d="m404.99 118.72h1.55v2.52a6.07 6.07 0 0 1 2.2-2.07 6.31 6.31 0 0 1 3.11-0.76 6.38 6.38 0 0 1 3.45 0.94 6.69 6.69 0 0 1 2.4 2.55 8 8 0 0 1 0 7.31 6.67 6.67 0 0 1-2.4 2.57 6.47 6.47 0 0 1-3.45 0.94 6.35 6.35 0 0 1-3.13-0.79 5.58 5.58 0 0 1-2.18-2.13v7.72h-1.55v-18.8zm9.45 11.71a5.14 5.14 0 0 0 1.82-2 6 6 0 0 0 0.67-2.87 6 6 0 0 0-0.67-2.86 5.27 5.27 0 0 0-1.83-2 4.82 4.82 0 0 0-2.63-0.73 5 5 0 0 0-2.66 0.73 5.4 5.4 0 0 0-1.88 2 5.85 5.85 0 0 0-0.69 2.86 5.91 5.91 0 0 0 0.69 2.87 5.28 5.28 0 0 0 1.88 2 5 5 0 0 0 2.66 0.74 4.77 4.77 0 0 0 2.64-0.74z"/>
   <path class="cls-2" d="m424.69 131.78a6.9 6.9 0 0 1-2.49-2.57 7.8 7.8 0 0 1 0-7.33 6.62 6.62 0 0 1 2.47-2.54 6.88 6.88 0 0 1 3.56-0.93 6.72 6.72 0 0 1 6 3.47 7.9 7.9 0 0 1 0 7.36 7 7 0 0 1-9.52 2.54h-0.02zm6.2-1.33a5.28 5.28 0 0 0 1.89-2 6.23 6.23 0 0 0 0-5.74 5.38 5.38 0 0 0-1.88-2 5.3 5.3 0 0 0-5.37 0 5.43 5.43 0 0 0-1.9 2 5.92 5.92 0 0 0-0.7 2.87 5.82 5.82 0 0 0 0.71 2.87 5.49 5.49 0 0 0 1.91 2 5.19 5.19 0 0 0 5.34 0z"/>
   <path class="cls-2" d="m441.24 131.78a6.9 6.9 0 0 1-2.49-2.57 7.8 7.8 0 0 1 0-7.33 6.62 6.62 0 0 1 2.47-2.54 6.88 6.88 0 0 1 3.56-0.93 6.72 6.72 0 0 1 6 3.47 7.9 7.9 0 0 1 0 7.36 7 7 0 0 1-9.52 2.54h-0.02zm6.2-1.33a5.36 5.36 0 0 0 1.89-2 6.23 6.23 0 0 0 0-5.74 5.38 5.38 0 0 0-1.88-2 5.3 5.3 0 0 0-5.37 0 5.43 5.43 0 0 0-1.9 2 5.92 5.92 0 0 0-0.7 2.87 5.82 5.82 0 0 0 0.71 2.87 5.49 5.49 0 0 0 1.91 2 5.19 5.19 0 0 0 5.34 0z"/>
   <path class="cls-2" d="m454.95 112.89h1.55v19.52h-1.55v-19.52z"/>
  </g>
  <circle class="cls-3" cx="104.19" cy="104.21" r="48.8" fill="#fdd202"/>
  <g className="fill-inherit" fill="#fff">
   <path class="cls-2" d="m104.18 153.52a49.32 49.32 0 1 1 45.5-30.35 49.44 49.44 0 0 1-45.5 30.35zm0-97.65a48.31 48.31 0 1 0 44.57 66.92l0.46 0.19-0.46-0.19a48.36 48.36 0 0 0-44.57-66.92z"/>
   <path class="cls-2" d="m104.19 196.52a13 13 0 0 1-13-13v-23.65a13 13 0 0 1 26 0v23.65a13 13 0 0 1-13 13z"/>
   <path class="cls-2" d="m104.19 61.521a13 13 0 0 1-13-13v-23.66a13 13 0 0 1 26 0v23.66a13 13 0 0 1-13 13z"/>
   <path class="cls-2" d="m48.111 173.32a13 13 0 0 1-9.2-22.19l16.75-16.75a13 13 0 0 1 18.39 18.38l-16.78 16.76a13 13 0 0 1-9.16 3.8z"/>
   <path class="cls-2" d="m143.54 77.861a13 13 0 0 1-9.19-22.2l16.76-16.75a13 13 0 0 1 18.39 18.39l-16.75 16.75a13 13 0 0 1-9.21 3.81z"/>
   <path class="cls-2" d="m48.521 117.21h-23.68a13 13 0 1 1 0-26h23.68a13 13 0 1 1 0 26z"/>
   <path class="cls-2" d="m183.53 117.21h-23.68a13 13 0 0 1 0-26h23.68a13 13 0 0 1 0 26z"/>
   <path class="cls-2" d="m64.831 77.861a13 13 0 0 1-9.2-3.81l-16.75-16.75a13 13 0 0 1 18.39-18.39l16.75 16.75a13 13 0 0 1-9.19 22.2z"/>
   <path class="cls-2" d="m160.29 173.32a13 13 0 0 1-9.18-3.8l-16.75-16.75a13 13 0 0 1 18.39-18.38l16.75 16.75a13 13 0 0 1-9.2 22.19l-0.01-0.01z"/>
   <path class="cls-2" d="m127.02 64.601a13 13 0 0 1-12.06-17.85l15.4-38.33a13 13 0 1 1 24.12 9.69l-15.37 38.33a13 13 0 0 1-12.09 8.16z"/>
   <path class="cls-2" d="m66.491 208.78a12.86 12.86 0 0 1-4.84-0.94 13 13 0 0 1-7.22-16.91l15.4-38.33a13 13 0 0 1 24.13 9.69l-15.41 38.33a13 13 0 0 1-12.06 8.16z"/>
   <path class="cls-2" d="m157.84 96.051a13 13 0 0 1-5.11-25l38-16.21a13 13 0 1 1 10.2 23.91l-38 16.22a13 13 0 0 1-5.09 1.08z"/>
   <path class="cls-2" d="m13.111 155.21a13 13 0 0 1-5.11-25l38-16.22a13 13 0 0 1 10.2 23.91l-38 16.22a13 13 0 0 1-5.09 1.09z"/>
   <path class="cls-2" d="m195.71 155.52a12.86 12.86 0 0 1-4.84-0.94l-38.34-15.4a13 13 0 0 1 9.7-24.13l38.33 15.4a13 13 0 0 1-4.85 25.07z"/>
   <path class="cls-2" d="m51.531 94.961a12.86 12.86 0 0 1-4.84-0.94l-38.33-15.4a13 13 0 0 1 9.69-24.1l38.33 15.4a13 13 0 0 1-4.85 25.07v-0.03z"/>
   <path class="cls-2" d="m142.11 208.9a13 13 0 0 1-12-7.9l-16.21-38a13 13 0 1 1 23.91-10.2l16.22 38a13 13 0 0 1-12 18.11l0.08-0.01z"/>
   <path class="cls-2" d="m83.001 64.141a13 13 0 0 1-12-7.9l-16.21-38a13 13 0 1 1 23.91-10.21l16.22 38a13 13 0 0 1-12 18.1l0.08 0.01z"/>
  </g>
  <circle class="cls-3" cx="104.19" cy="104.21" r="48.8" fill="#fdd202"/>
  <path class="cls-4" d="m109.18 141.14a11 11 0 0 1-2.33-0.89 0.75 0.75 0 0 1-0.31-1 0.81 0.81 0 0 1 1-0.32c4 1.33 9.65 1.66 13.57 0a9.77 9.77 0 0 0 5.84-8 0.75 0.75 0 0 1 0.84-0.67 0.77 0.77 0 0 1 0.67 0.84 11.28 11.28 0 0 1-6.77 9.23 21.05 21.05 0 0 1-12.51 0.81z" fill="#231e3d"/>
  <path class="cls-4" d="m125.44 131.19a0.76 0.76 0 0 1 0.36-1.47l4 0.88a0.76 0.76 0 1 1-0.32 1.48l-4-0.88-0.04-0.01z" fill="#231e3d"/>
  <path class="cls-5" d="m114.5 97.851a22.46 22.46 0 0 0-9.05-1.78c-5.9 0-9.07 1.67-9.07 1.67v-6.42l18.13 0.11-0.01 6.42z" fill="#2d2d2b"/>
  <path class="cls-6" d="m115.55 99.521-1.51-0.74a21.77 21.77 0 0 0-8.6-1.67h-0.17a19.5 19.5 0 0 0-8.4 1.55l-1.56 0.82 0.05-9.24 20.25 0.11-0.06 9.17zm-10.28-4.53h0.18a25.67 25.67 0 0 1 8 1.29v-3.82l-16-0.1v3.79a24.9 24.9 0 0 1 7.82-1.14v-0.02z" fill="#1d1d1b"/>
  <path class="cls-7" d="m81.791 113.32c-18-0.1-18-8.85-17.9-18.11 0.06-9.83 2.8-13.3 18.08-13.21 14.89 0.09 18 7.34 17.93 13.42-0.06 10.81-3.17 17.99-18.11 17.9z" fill="#3c3c3b"/>
  <path class="cls-6" d="m81.961 82.991c9.41 0 17 3 17 12.42s-2.06 17-17.13 16.92c-17-0.1-17-7.71-16.92-17.12s2.39-12.31 17.09-12.22m0-2c-14.91-0.08-19 3-19.08 14.19 0 9.34-0.11 19 18.88 19.11 16.7 0.09 19.05-9 19.11-18.89 0-6.52-3.21-14.32-18.91-14.41z" fill="#1d1d1b"/>
  <path class="cls-8" d="m94.111 85.811a16.77 16.77 0 0 0-5.95-2.26 128 128 0 0 1-22.92 19.43 10 10 0 0 0 2.9 5.74c10.12-5.44 19.88-13.14 25.97-22.91z" fill="#b1b1b1"/>
  <path class="cls-7" d="m128.87 113.59c-16.61-0.09-17.95-9.4-17.9-18.11 0-6.07 3.2-13.29 18.08-13.21 15.29 0.09 18 3.6 17.93 13.42-0.05 9.26-0.1 18.01-18.11 17.9z" fill="#3c3c3b"/>
  <path class="cls-6" d="m129.05 83.261c14.71 0.09 17 3 16.95 12.43s-0.1 17-17.12 16.92c-15.06-0.09-17-7.72-16.93-17.12s7.7-12.29 17.1-12.23m0-2c-15.7-0.09-19 7.66-19.08 14.19-0.05 9.86 2.19 19 18.89 19.1 19 0.11 19.05-9.55 19.1-18.88 0.07-11.23-4-14.33-18.91-14.41z" fill="#1d1d1b"/>
  <path class="cls-8" d="m137.11 83.771a47.67 47.67 0 0 0-6-0.48 38.63 38.63 0 0 1-18.22 20.41 11 11 0 0 0 3.41 5.43c10.7-4.46 18.88-13.92 20.81-25.36z" fill="#b1b1b1"/>
  <g fill="#ffa300">
   <path class="cls-9" d="m104.19 184.31a0.74 0.74 0 0 1-0.75-0.75v-23.69a0.75 0.75 0 0 1 1.5 0v23.65a0.75 0.75 0 0 1-0.75 0.79z"/>
   <path class="cls-9" d="m104.19 49.301a0.74 0.74 0 0 1-0.75-0.75v-23.69a0.75 0.75 0 1 1 1.5 0v23.66a0.75 0.75 0 0 1-0.75 0.78z"/>
   <path class="cls-9" d="m48.111 161.07a0.73 0.73 0 0 1-0.53-0.22 0.74 0.74 0 0 1 0-1.06l16.75-16.75a0.75 0.75 0 1 1 1.06 1.06l-16.78 16.75a0.74 0.74 0 0 1-0.5 0.22z"/>
   <path class="cls-9" d="m143.54 65.611a0.79 0.79 0 0 1-0.53-0.22 0.75 0.75 0 0 1 0-1.06l16.75-16.75a0.75 0.75 0 0 1 1.06 1.06l-16.71 16.75a0.75 0.75 0 0 1-0.57 0.22z"/>
   <path class="cls-9" d="m48.521 104.96h-23.68a0.75 0.75 0 1 1 0-1.5h23.68a0.75 0.75 0 1 1 0 1.5z"/>
   <path class="cls-9" d="m183.53 104.96h-23.68a0.75 0.75 0 0 1 0-1.5h23.68a0.75 0.75 0 0 1 0 1.5z"/>
   <path class="cls-9" d="m64.831 65.611a0.77 0.77 0 0 1-0.53-0.22l-16.75-16.75a0.75 0.75 0 0 1 1.06-1.06l16.75 16.75a0.75 0.75 0 0 1 0 1.06 0.79 0.79 0 0 1-0.53 0.22z"/>
   <path class="cls-9" d="m160.29 161.07a0.74 0.74 0 0 1-0.53-0.22l-16.75-16.75a0.75 0.75 0 1 1 1.06-1.06l16.75 16.75a0.74 0.74 0 0 1 0 1.06 0.71 0.71 0 0 1-0.53 0.22z"/>
   <path class="cls-9" d="m127.02 52.351a0.71 0.71 0 0 1-0.28-0.06 0.74 0.74 0 0 1-0.41-1l15.4-38.33a0.75 0.75 0 1 1 1.38 0.56l-15.4 38.33a0.75 0.75 0 0 1-0.69 0.5z"/>
   <path class="cls-9" d="m66.491 196.52a0.71 0.71 0 0 1-0.28-0.06 0.74 0.74 0 0 1-0.41-1l15.4-38.34a0.75 0.75 0 0 1 1.39 0.56l-15.4 38.33a0.75 0.75 0 0 1-0.7 0.51z"/>
   <path class="cls-9" d="m157.84 83.801a0.75 0.75 0 0 1-0.3-1.44l38-16.21a0.75 0.75 0 0 1 1 0.39 0.76 0.76 0 0 1-0.4 1l-38 16.21a0.79 0.79 0 0 1-0.3 0.05z"/>
   <path class="cls-9" d="m13.111 142.95a0.75 0.75 0 0 1-0.3-1.44l38-16.21a0.75 0.75 0 0 1 1 0.39 0.76 0.76 0 0 1-0.4 1l-38 16.21a0.79 0.79 0 0 1-0.3 0.05z"/>
   <path class="cls-9" d="m195.71 143.23a0.69 0.69 0 0 1-0.28 0l-38.32-15.45a0.75 0.75 0 0 1 0.56-1.39l38.33 15.4a0.75 0.75 0 0 1-0.28 1.44h-0.01z"/>
   <path class="cls-9" d="m51.531 82.711a0.71 0.71 0 0 1-0.28-0.06l-38.33-15.4a0.75 0.75 0 0 1 0.56-1.39l38.33 15.4a0.74 0.74 0 0 1 0.42 1 0.75 0.75 0 0 1-0.7 0.45z"/>
   <path class="cls-9" d="m142.11 196.64a0.75 0.75 0 0 1-0.69-0.45l-16.22-38a0.75 0.75 0 0 1 1.38-0.59l16.22 38a0.75 0.75 0 0 1-0.4 1 0.72 0.72 0 0 1-0.29 0.04z"/>
   <path class="cls-9" d="m82.991 51.891a0.75 0.75 0 0 1-0.69-0.46l-16.21-38a0.74 0.74 0 0 1 0.39-1 0.75 0.75 0 0 1 1 0.39l16.22 38a0.75 0.75 0 0 1-0.4 1 0.72 0.72 0 0 1-0.31 0.07z"/>
  </g>
  <text x="272.96268" y="194.02148" fill="#fff" font-family="'Sora'" font-size="26" font-weight="bold" stroke-width="0" xml:space="preserve">ticker OTG</text>
 </g>
</svg>
