<svg width="381.27" height="382.37" data-name="Layer 1" version="1.1" viewBox="0 0 381.27 382.37" xmlns="http://www.w3.org/2000/svg">
 <defs>
  <style>.cls-1{fill:#fdd202;}.cls-2{fill:#fff;}.cls-3{fill:#231e3d;}.cls-4{fill:#2d2d2b;}.cls-5{fill:#1d1d1b;}.cls-6{fill:#3c3c3b;}.cls-7{fill:#b1b1b1;}.cls-8{fill:#ffa300;}</style>
 </defs>
 <circle class="cls-1" cx="190.27" cy="190.63" r="88.4"/>
 <path class="cls-2" d="m190.27 279.99a89.34 89.34 0 1 1 82.42-55 89.55 89.55 0 0 1-82.42 55zm0-176.89a87.52 87.52 0 1 0 80.75 121.22l0.83 0.34-0.83-0.34a87.6 87.6 0 0 0-80.75-121.22z"/>
 <path class="cls-2" d="m190.27 357.92a23.55 23.55 0 0 1-23.51-23.55v-42.91a23.55 23.55 0 0 1 47.1 0v42.91a23.55 23.55 0 0 1-23.59 23.55z"/>
 <path class="cls-2" d="m190.27 113.36a23.55 23.55 0 0 1-23.51-23.55v-42.91a23.55 23.55 0 0 1 47.1 0v42.91a23.56 23.56 0 0 1-23.59 23.55z"/>
 <path class="cls-2" d="m88.631 315.82a23.55 23.55 0 0 1-16.65-40.2l30.34-30.34a23.55 23.55 0 0 1 33.3 33.3l-30.34 30.35a23.5 23.5 0 0 1-16.65 6.89z"/>
 <path class="cls-2" d="m261.56 142.89a23.55 23.55 0 0 1-16.65-40.2l30.34-30.35a23.554 23.554 0 0 1 33.31 33.31l-30.34 30.34a23.49 23.49 0 0 1-16.66 6.9z"/>
 <path class="cls-2" d="m89.441 214.19h-42.91a23.55 23.55 0 1 1 0-47.09h42.91a23.55 23.55 0 1 1 0 47.09z"/>
 <path class="cls-2" d="m334.01 214.19h-42.91a23.55 23.55 0 1 1 0-47.09h42.91a23.55 23.55 0 1 1 0 47.09z"/>
 <path class="cls-2" d="m118.97 142.89a23.46 23.46 0 0 1-16.65-6.9l-30.34-30.34a23.55 23.55 0 0 1 33.3-33.31l30.34 30.35a23.55 23.55 0 0 1-16.65 40.2z"/>
 <path class="cls-2" d="m291.91 315.82a23.52 23.52 0 0 1-16.66-6.89l-30.34-30.35a23.55 23.55 0 0 1 33.31-33.3l30.34 30.34a23.55 23.55 0 0 1-16.65 40.2z"/>
 <path class="cls-2" d="m231.63 118.88a23.58 23.58 0 0 1-21.87-32.34l27.9-69.44a23.55 23.55 0 1 1 43.7 17.56l-27.89 69.44a23.57 23.57 0 0 1-21.84 14.78z"/>
 <path class="cls-2" d="m121.98 380.05a23.56 23.56 0 0 1-21.85-32.33l27.9-69.44a23.562 23.562 0 0 1 43.73 17.56l-27.9 69.44a23.55 23.55 0 0 1-21.88 14.77z"/>
 <path class="cls-2" d="m287.46 175.86a23.56 23.56 0 0 1-9.25-45.22l68.83-29.37a23.55 23.55 0 0 1 18.48 43.32l-68.82 29.37a23.45 23.45 0 0 1-9.24 1.9z"/>
 <path class="cls-2" d="m25.251 283a23.55 23.55 0 0 1-9.25-45.21l68.82-29.37a23.55 23.55 0 0 1 18.49 43.32l-68.83 29.37a23.39 23.39 0 0 1-9.23 1.89z"/>
 <path class="cls-2" d="m356.06 283.52a23.43 23.43 0 0 1-8.77-1.71l-69.44-27.89a23.562 23.562 0 0 1 17.56-43.73l69.44 27.9a23.56 23.56 0 0 1-8.79 45.41z"/>
 <path class="cls-2" d="m94.881 173.87a23.61 23.61 0 0 1-8.77-1.7l-69.44-27.9a23.55 23.55 0 1 1 17.56-43.7l69.44 27.89a23.56 23.56 0 0 1-8.79 45.41z"/>
 <path class="cls-2" d="m259.03 380.26a23.55 23.55 0 0 1-21.67-14.31l-29.37-68.82a23.55 23.55 0 1 1 43.32-18.49l29.37 68.83a23.55 23.55 0 0 1-21.65 32.79z"/>
 <path class="cls-2" d="m151.88 118.05a23.55 23.55 0 0 1-21.67-14.31l-29.37-68.83a23.55 23.55 0 0 1 43.32-18.48l29.37 68.82a23.57 23.57 0 0 1-21.65 32.8z"/>
 <circle class="cls-1" cx="190.27" cy="190.63" r="88.4"/>
 <path class="cls-3" d="m199.32 257.53a20.7 20.7 0 0 1-4.22-1.61 1.37 1.37 0 0 1-0.57-1.86 1.47 1.47 0 0 1 1.86-0.57c7.16 2.41 17.47 3 24.57 0.05a17.66 17.66 0 0 0 10.58-14.49 1.3732 1.3732 0 0 1 2.73 0.3 20.43 20.43 0 0 1-12.25 16.73 38.12 38.12 0 0 1-22.7 1.45z"/>
 <path class="cls-3" d="m228.76 239.51a1.374 1.374 0 0 1 0.65-2.67l7.3 1.59a1.38 1.38 0 1 1-0.59 2.69l-7.29-1.6z"/>
 <path class="cls-4" d="m208.96 179.11a40.77 40.77 0 0 0-16.4-3.22c-10.68-0.07-16.44 3-16.44 3l0.07-11.63 32.84 0.19z"/>
 <path class="cls-5" d="m210.86 182.19-2.74-1.34a39.67 39.67 0 0 0-15.58-3h-0.3c-9.78 0-15.16 2.78-15.22 2.81l-2.83 1.49 0.09-16.75 36.68 0.21zm-18.63-8.2h0.34a46.42 46.42 0 0 1 14.49 2.33v-6.92l-29-0.17v6.86a44.67 44.67 0 0 1 14.17-2.12z"/>
 <path class="cls-6" d="m149.69 207.13c-32.61-0.19-32.52-16-32.42-32.81 0.11-17.8 5.07-24.09 32.75-23.93 27 0.16 32.55 13.31 32.49 24.31-0.12 19.58-5.75 32.59-32.82 32.43z"/>
 <path class="cls-5" d="m150.01 152.19c17 0.1 30.81 5.48 30.71 22.51s-3.73 30.81-31 30.65c-30.83-0.17-30.75-14-30.65-31s4.32-22.3 30.95-22.15m0-3.57c-27-0.16-34.44 5.37-34.56 25.7-0.1 16.92-0.2 34.41 34.2 34.61 30.25 0.17 34.51-16.34 34.61-34.21 0.07-11.82-5.81-25.94-34.25-26.1z"/>
 <path class="cls-7" d="m172.09 157.29a30.32 30.32 0 0 0-10.79-4.1 231 231 0 0 1-41.54 35.21 18.1 18.1 0 0 0 5.27 10.39c18.28-9.85 35.95-23.79 47.06-41.5z"/>
 <path class="cls-6" d="m234.99 207.63c-30.1-0.18-32.52-17-32.43-32.81 0.06-11 5.8-24.09 32.76-23.93 27.69 0.16 32.58 6.51 32.48 24.31-0.1 16.77-0.19 32.62-32.81 32.43z"/>
 <path class="cls-5" d="m235.31 152.68c26.64 0.15 30.8 5.48 30.7 22.51s-0.18 30.83-31 30.65c-27.28-0.16-30.76-14-30.66-31s13.94-22.25 31-22.15m0-3.58c-28.44-0.16-34.49 13.89-34.56 25.71-0.1 17.87 4 34.43 34.21 34.6 34.4 0.2 34.51-17.29 34.6-34.2 0.12-20.34-7.24-25.95-34.25-26.11z"/>
 <path class="cls-7" d="m249.84 153.61a85 85 0 0 0-10.88-0.87 70 70 0 0 1-33 37 20 20 0 0 0 6.18 9.84c19.46-8.11 34.28-25.25 37.7-45.97z"/>
 <path class="cls-8" d="m190.27 335.73a1.36 1.36 0 0 1-1.36-1.36v-42.91a1.36 1.36 0 0 1 2.72 0v42.91a1.36 1.36 0 0 1-1.36 1.36z"/>
 <path class="cls-8" d="m190.27 91.186a1.36 1.36 0 0 1-1.36-1.36v-42.93a1.36 1.36 0 0 1 2.72 0v42.91a1.36 1.36 0 0 1-1.36 1.38z"/>
 <path class="cls-8" d="m88.631 293.63a1.35 1.35 0 0 1-1-0.39 1.37 1.37 0 0 1 0-1.93l30.34-30.34a1.36 1.36 0 0 1 1.92 1.92l-30.34 30.35a1.37 1.37 0 0 1-0.92 0.39z"/>
 <path class="cls-8" d="m261.56 120.7a1.4 1.4 0 0 1-1-0.4 1.36 1.36 0 0 1 0-1.92l30.35-30.34a1.34 1.34 0 0 1 1.92 0 1.36 1.36 0 0 1 0 1.92l-30.35 30.34a1.36 1.36 0 0 1-0.92 0.4z"/>
 <path class="cls-8" d="m89.441 191.99h-42.91a1.36 1.36 0 1 1 0-2.71h42.91a1.36 1.36 0 1 1 0 2.71z"/>
 <path class="cls-8" d="m334.01 191.99h-42.91a1.36 1.36 0 1 1 0-2.71h42.91a1.36 1.36 0 1 1 0 2.71z"/>
 <path class="cls-8" d="m118.97 120.7a1.38 1.38 0 0 1-1-0.4l-30.34-30.34a1.36 1.36 0 0 1 0-1.92 1.34 1.34 0 0 1 1.92 0l30.34 30.34a1.36 1.36 0 0 1-1 2.32z"/>
 <path class="cls-8" d="m291.91 293.63a1.35 1.35 0 0 1-1-0.39l-30.31-30.35a1.36 1.36 0 0 1 1.92-1.92l30.35 30.34a1.37 1.37 0 0 1 0 1.93 1.39 1.39 0 0 1-0.96 0.39z"/>
 <path class="cls-8" d="m231.64 96.676a1.29 1.29 0 0 1-0.51-0.1 1.36 1.36 0 0 1-0.76-1.77l27.9-69.43a1.36 1.36 0 1 1 2.52 1l-27.89 69.43a1.37 1.37 0 0 1-1.26 0.87z"/>
 <path class="cls-8" d="m121.99 357.86a1.54 1.54 0 0 1-0.51-0.1 1.36 1.36 0 0 1-0.75-1.77l27.89-69.43a1.36 1.36 0 1 1 2.52 1l-27.89 69.43a1.38 1.38 0 0 1-1.26 0.87z"/>
 <path class="cls-8" d="m287.45 153.66a1.36 1.36 0 0 1-0.53-2.61l68.84-29.37a1.36 1.36 0 1 1 1.06 2.5l-68.82 29.37a1.49 1.49 0 0 1-0.55 0.11z"/>
 <path class="cls-8" d="m25.241 260.81a1.36 1.36 0 0 1-0.48-2.62l68.82-29.37a1.36 1.36 0 1 1 1.07 2.5l-68.89 29.38a1.4 1.4 0 0 1-0.52 0.11z"/>
 <path class="cls-8" d="m356.07 261.32a1.32 1.32 0 0 1-0.51-0.1l-69.44-27.89a1.3602 1.3602 0 0 1 1-2.53l69.43 27.9a1.36 1.36 0 0 1-0.5 2.62z"/>
 <path class="cls-8" d="m94.891 151.67a1.52 1.52 0 0 1-0.51-0.09l-69.43-27.9a1.36 1.36 0 1 1 1-2.52l69.43 27.89a1.36 1.36 0 0 1-0.5 2.62z"/>
 <path class="cls-8" d="m259.02 358.07a1.35 1.35 0 0 1-1.25-0.83l-29.37-68.82a1.36 1.36 0 1 1 2.5-1.07l29.37 68.84a1.36 1.36 0 0 1-0.72 1.78 1.4 1.4 0 0 1-0.53 0.1z"/>
 <path class="cls-8" d="m151.87 95.846a1.36 1.36 0 0 1-1.25-0.82l-29.37-68.84a1.36 1.36 0 1 1 2.51-1l29.37 68.82a1.35 1.35 0 0 1-0.72 1.78 1.23 1.23 0 0 1-0.54 0.06z"/>
</svg>
